<svg width="22" height="22" viewBox="0 0 22 22" fill="none" xmlns="http://www.w3.org/2000/svg">
<path d="M10.1055 11C10.1055 10.506 10.506 10.1055 11 10.1055C11.494 10.1055 11.8945 10.506 11.8945 11C11.8945 11.494 11.494 11.8945 11 11.8945C10.506 11.8945 10.1055 11.494 10.1055 11Z" stroke="#1C3F97" stroke-width="6"/>
<mask id="path-2-inside-1_292:42" fill="white">
<path d="M15.924 7.27434C15.8227 7.00008 15.6613 6.75183 15.4515 6.54807C15.2477 6.33826 14.9996 6.17679 14.7252 6.07558C14.5026 5.98914 14.1683 5.88625 13.5524 5.85822C12.8863 5.82784 12.6865 5.82129 11 5.82129C9.31331 5.82129 9.11357 5.82767 8.44756 5.85805C7.83173 5.88625 7.49721 5.98914 7.27481 6.07558C7.00038 6.17679 6.75214 6.33826 6.54854 6.54807C6.33873 6.75183 6.17726 6.99991 6.07588 7.27434C5.98944 7.4969 5.88655 7.83142 5.85852 8.44725C5.82814 9.11327 5.82159 9.313 5.82159 10.9997C5.82159 12.6862 5.82814 12.886 5.85852 13.5521C5.88655 14.168 5.98944 14.5023 6.07588 14.7249C6.17726 14.9993 6.33856 15.2474 6.54837 15.4512C6.75214 15.661 7.00021 15.8224 7.27464 15.9236C7.49721 16.0103 7.83173 16.1131 8.44756 16.1412C9.11357 16.1716 9.31314 16.1779 10.9998 16.1779C12.6867 16.1779 12.8864 16.1716 13.5523 16.1412C14.1681 16.1131 14.5026 16.0103 14.7252 15.9236C15.2761 15.7112 15.7115 15.2758 15.924 14.7249C16.0104 14.5023 16.1133 14.168 16.1415 13.5521C16.1719 12.886 16.1782 12.6862 16.1782 10.9997C16.1782 9.313 16.1719 9.11327 16.1415 8.44725C16.1134 7.83142 16.0106 7.4969 15.924 7.27434ZM11 14.243C9.20857 14.243 7.75636 12.791 7.75636 10.9995C7.75636 9.2081 9.20857 7.75606 11 7.75606C12.7913 7.75606 14.2435 9.2081 14.2435 10.9995C14.2435 12.791 12.7913 14.243 11 14.243ZM14.3717 8.38582C13.9531 8.38582 13.6137 8.04643 13.6137 7.62782C13.6137 7.20921 13.9531 6.86983 14.3717 6.86983C14.7903 6.86983 15.1297 7.20921 15.1297 7.62782C15.1295 8.04643 14.7903 8.38582 14.3717 8.38582Z"/>
</mask>
<path d="M15.4515 6.54807L11.1473 10.7283L11.2084 10.7912L11.2713 10.8522L15.4515 6.54807ZM14.7252 6.07558L12.553 11.6686L12.6008 11.6872L12.649 11.7049L14.7252 6.07558ZM13.5524 5.85822L13.2791 11.852L13.2796 11.852L13.5524 5.85822ZM8.44756 5.85805L8.17415 -0.13572L8.17311 -0.135673L8.44756 5.85805ZM7.27481 6.07558L9.35096 11.7049L9.39987 11.6869L9.44847 11.668L7.27481 6.07558ZM6.54854 6.54807L10.7287 10.8522L10.7925 10.7903L10.8544 10.7265L6.54854 6.54807ZM6.07588 7.27434L11.6689 9.44657L11.6869 9.40019L11.7041 9.35351L6.07588 7.27434ZM5.85852 8.44725L11.8523 8.72066L11.8523 8.72007L5.85852 8.44725ZM5.85852 13.5521L11.8523 13.2793L11.8523 13.2788L5.85852 13.5521ZM6.07588 14.7249L11.7041 12.6457L11.6869 12.599L11.6689 12.5526L6.07588 14.7249ZM6.54837 15.4512L10.8525 11.2709L10.7915 11.2081L10.7286 11.147L6.54837 15.4512ZM7.27464 15.9236L9.45054 10.3321L9.40083 10.3127L9.35079 10.2943L7.27464 15.9236ZM8.44756 16.1412L8.72096 10.1474L8.72037 10.1474L8.44756 16.1412ZM13.5523 16.1412L13.2795 10.1474L13.2788 10.1474L13.5523 16.1412ZM14.7252 15.9236L12.5658 10.3257L12.5576 10.3289L12.5493 10.3321L14.7252 15.9236ZM15.924 14.7249L10.331 12.5526L10.326 12.5655L15.924 14.7249ZM16.1415 13.5521L22.1352 13.8266L22.1353 13.8255L16.1415 13.5521ZM16.1415 8.44725L10.1477 8.72007L10.1477 8.72066L16.1415 8.44725ZM15.1297 7.62782L21.1297 7.63023V7.62782H15.1297ZM21.5529 5.19707C21.1413 4.08172 20.4848 3.07249 19.6317 2.2439L11.2713 10.8522C10.8377 10.4312 10.5042 9.91843 10.295 9.3516L21.5529 5.19707ZM19.7556 2.36786C18.9278 1.51546 17.9187 0.858304 16.8013 0.446224L12.649 11.7049C12.0806 11.4953 11.5676 11.1611 11.1473 10.7283L19.7556 2.36786ZM16.8974 0.4826C16.0784 0.164497 15.1032 -0.0774131 13.8253 -0.135579L13.2796 11.852C13.3014 11.853 13.2098 11.8502 13.0392 11.814C12.9543 11.7959 12.8635 11.7725 12.7698 11.7437C12.6757 11.7147 12.5999 11.6868 12.553 11.6686L16.8974 0.4826ZM13.8258 -0.135555C13.0212 -0.172246 12.7131 -0.178711 11 -0.178711V11.8213C11.8495 11.8213 12.2748 11.823 12.5641 11.8276C12.8179 11.8316 12.964 11.8376 13.2791 11.852L13.8258 -0.135555ZM11 -0.178711C9.288 -0.178711 8.97926 -0.172445 8.17415 -0.13572L8.72096 11.8518C9.03518 11.8375 9.18121 11.8315 9.43505 11.8275C9.72467 11.823 10.1501 11.8213 11 11.8213V-0.178711ZM8.17311 -0.135673C6.89668 -0.0772262 5.9213 0.16438 5.10115 0.483153L9.44847 11.668C9.40086 11.6865 9.32467 11.7146 9.23045 11.7436C9.13673 11.7724 9.046 11.7958 8.96127 11.8138C8.79102 11.85 8.69985 11.8528 8.722 11.8518L8.17311 -0.135673ZM5.19866 0.446224C4.08274 0.857784 3.07227 1.5147 2.24265 2.36963L10.8544 10.7265C10.432 11.1618 9.91802 11.4958 9.35096 11.7049L5.19866 0.446224ZM2.36833 2.2439C1.51584 3.07184 0.85955 4.08016 0.447647 5.19516L11.7041 9.35351C11.495 9.91966 11.1616 10.4318 10.7287 10.8522L2.36833 2.2439ZM0.482905 5.1021C0.164668 5.92148 -0.0771246 6.89689 -0.135274 8.17443L11.8523 8.72007C11.8533 8.69826 11.8505 8.78971 11.8143 8.96018C11.7963 9.04501 11.7729 9.13574 11.7441 9.22936C11.7151 9.32346 11.6872 9.39942 11.6689 9.44657L0.482905 5.1021ZM-0.135247 8.17385C-0.171942 8.97829 -0.178406 9.28642 -0.178406 10.9997H11.8216C11.8216 10.1501 11.8233 9.72479 11.8279 9.43548C11.8319 9.18167 11.8379 9.03568 11.8523 8.72066L-0.135247 8.17385ZM-0.178406 10.9997C-0.178406 12.7128 -0.17194 13.0209 -0.13525 13.8255L11.8523 13.2788C11.8379 12.9637 11.8319 12.8176 11.8279 12.5638C11.8233 12.2745 11.8216 11.8492 11.8216 10.9997H-0.178406ZM-0.135274 13.825C-0.0771079 15.1029 0.164802 16.0781 0.482904 16.8971L11.6689 12.5526C11.6871 12.5996 11.715 12.6754 11.744 12.7695C11.7728 12.8632 11.7962 12.9539 11.8143 13.0389C11.8505 13.2095 11.8533 13.3011 11.8523 13.2793L-0.135274 13.825ZM0.447647 16.8041C0.858861 17.9172 1.51425 18.926 2.36816 19.7553L10.7286 11.147C11.1629 11.5688 11.4957 12.0814 11.7041 12.6457L0.447647 16.8041ZM2.2442 19.6314C3.07205 20.4838 4.08117 21.1409 5.1985 21.553L9.35079 10.2943C9.91926 10.5039 10.4322 10.8382 10.8525 11.2709L2.2442 19.6314ZM5.09874 21.5152C5.92089 21.8351 6.89765 22.0768 8.17474 22.135L8.72037 10.1474C8.6985 10.1464 8.7902 10.1492 8.96111 10.1855C9.04618 10.2036 9.13727 10.2271 9.23137 10.2561C9.32598 10.2852 9.40253 10.3134 9.45054 10.3321L5.09874 21.5152ZM8.17415 22.1349C8.97925 22.1717 9.28782 22.1779 10.9998 22.1779V10.1779C10.15 10.1779 9.72455 10.1762 9.43498 10.1717C9.1812 10.1677 9.03522 10.1617 8.72096 10.1474L8.17415 22.1349ZM10.9998 22.1779C12.712 22.1779 13.0207 22.1717 13.8258 22.1349L13.2788 10.1474C12.9647 10.1617 12.8187 10.1677 12.5649 10.1717C12.2753 10.1762 11.8498 10.1779 10.9998 10.1779V22.1779ZM13.8251 22.135C15.1022 22.0768 16.0789 21.8351 16.9011 21.5152L12.5493 10.3321C12.5973 10.3134 12.6739 10.2852 12.7685 10.2561C12.8626 10.2271 12.9537 10.2036 13.0387 10.1855C13.2096 10.1492 13.3013 10.1464 13.2795 10.1474L13.8251 22.135ZM16.8845 21.5216C19.0156 20.6996 20.6999 19.0153 21.5219 16.8842L10.326 12.5655C10.723 11.5363 11.5366 10.7227 12.5658 10.3257L16.8845 21.5216ZM21.5169 16.8971C21.8349 16.0784 22.0767 15.1037 22.1352 13.8266L10.1478 13.2777C10.1467 13.2998 10.1495 13.2085 10.1857 13.0382C10.2037 12.9535 10.2271 12.8629 10.2559 12.7694C10.2848 12.6754 10.3128 12.5996 10.331 12.5526L21.5169 16.8971ZM22.1353 13.8255C22.172 13.0202 22.1782 12.7116 22.1782 10.9997H10.1782C10.1782 11.8495 10.1765 12.2749 10.172 12.5645C10.168 12.8184 10.162 12.9645 10.1477 13.2788L22.1353 13.8255ZM22.1782 10.9997C22.1782 9.2877 22.172 8.97896 22.1352 8.17385L10.1477 8.72066C10.162 9.03488 10.168 9.18091 10.172 9.43475C10.1765 9.72437 10.1782 10.1498 10.1782 10.9997H22.1782ZM22.1353 8.17443C22.0771 6.89734 21.8354 5.92058 21.5155 5.09844L10.3324 9.45024C10.3137 9.40222 10.2855 9.32567 10.2564 9.23107C10.2274 9.13697 10.2039 9.04587 10.1858 8.96081C10.1495 8.7899 10.1467 8.6982 10.1477 8.72007L22.1353 8.17443ZM11 8.243C12.5219 8.243 13.7564 9.47684 13.7564 10.9995H1.75636C1.75636 16.1051 5.89527 20.243 11 20.243V8.243ZM13.7564 10.9995C13.7564 12.5222 12.5219 13.7561 11 13.7561V1.75606C5.89527 1.75606 1.75636 5.89399 1.75636 10.9995H13.7564ZM11 13.7561C9.47775 13.7561 8.24347 12.522 8.24347 10.9995H20.2435C20.2435 5.89419 16.1048 1.75606 11 1.75606V13.7561ZM8.24347 10.9995C8.24347 9.47704 9.47775 8.243 11 8.243V20.243C16.1048 20.243 20.2435 16.1049 20.2435 10.9995H8.24347ZM14.3717 2.38582C17.2668 2.38582 19.6137 4.73272 19.6137 7.62782H7.61371C7.61371 11.3601 10.6394 14.3858 14.3717 14.3858V2.38582ZM19.6137 7.62782C19.6137 10.5229 17.2668 12.8698 14.3717 12.8698V0.869827C10.6394 0.869827 7.61371 3.8955 7.61371 7.62782H19.6137ZM14.3717 12.8698C11.4766 12.8698 9.1297 10.5229 9.1297 7.62782H21.1297C21.1297 3.8955 18.104 0.869827 14.3717 0.869827V12.8698ZM9.1297 7.62542C9.13086 4.73439 11.4744 2.38582 14.3717 2.38582V14.3858C18.1062 14.3858 21.1282 11.3585 21.1297 7.63023L9.1297 7.62542Z" fill="#1C3F97" mask="url(#path-2-inside-1_292:42)"/>
<mask id="path-4-inside-2_292:42" fill="white">
<path d="M11 0C4.9258 0 0 4.9258 0 11C0 17.0742 4.9258 22 11 22C17.0742 22 22 17.0742 22 11C22 4.9258 17.0742 0 11 0ZM17.2783 13.6041C17.2478 14.2765 17.1408 14.7356 16.9847 15.1374C16.6566 15.9859 15.9859 16.6566 15.1374 16.9847C14.7358 17.1408 14.2765 17.2476 13.6043 17.2783C12.9307 17.309 12.7156 17.3164 11.0002 17.3164C9.28461 17.3164 9.0696 17.309 8.39586 17.2783C7.72363 17.2476 7.2644 17.1408 6.86275 16.9847C6.44112 16.8261 6.05943 16.5775 5.74388 16.2561C5.42262 15.9407 5.17404 15.5589 5.01543 15.1374C4.85933 14.7358 4.75241 14.2765 4.72186 13.6043C4.69081 12.9306 4.68359 12.7154 4.68359 11C4.68359 9.28461 4.69081 9.06943 4.72169 8.39586C4.75224 7.72346 4.85899 7.2644 5.01509 6.86258C5.17371 6.44112 5.42245 6.05927 5.74388 5.74388C6.05927 5.42245 6.44112 5.17387 6.86258 5.01526C7.2644 4.85916 7.72346 4.75241 8.39586 4.72169C9.06943 4.69098 9.28461 4.68359 11 4.68359C12.7154 4.68359 12.9306 4.69098 13.6041 4.72186C14.2765 4.75241 14.7356 4.85916 15.1374 5.01509C15.5589 5.17371 15.9407 5.42245 16.2563 5.74388C16.5775 6.05943 16.8263 6.44112 16.9847 6.86258C17.141 7.2644 17.2478 7.72346 17.2785 8.39586C17.3092 9.06943 17.3164 9.28461 17.3164 11C17.3164 12.7154 17.3092 12.9306 17.2783 13.6041Z"/>
</mask>
<path d="M16.9847 15.1374L11.3919 12.9648L11.3887 12.9732L16.9847 15.1374ZM15.1374 16.9847L12.9732 11.3887L12.964 11.3922L15.1374 16.9847ZM13.6043 17.2783L13.8776 23.2721L13.8782 23.2721L13.6043 17.2783ZM8.39586 17.2783L8.12199 23.2721L8.1226 23.2721L8.39586 17.2783ZM6.86275 16.9847L9.03618 11.3922L9.00584 11.3804L8.97537 11.369L6.86275 16.9847ZM5.74388 16.2561L10.0255 12.0528L9.98669 12.0133L9.94719 11.9745L5.74388 16.2561ZM5.01543 15.1374L10.6309 13.0241L10.6196 12.994L10.6079 12.964L5.01543 15.1374ZM4.72186 13.6043L10.7157 13.3319L10.7155 13.3281L4.72186 13.6043ZM4.72169 8.39586L10.7154 8.67068L10.7155 8.66817L4.72169 8.39586ZM5.01509 6.86258L10.6079 9.03523L10.6194 9.00564L10.6306 8.97594L5.01509 6.86258ZM5.74388 5.74388L9.94608 10.0266L9.98671 9.98671L10.0266 9.94608L5.74388 5.74388ZM6.86258 5.01526L8.97594 10.6307L9.00564 10.6196L9.03523 10.6081L6.86258 5.01526ZM8.39586 4.72169L8.12253 -1.27208L8.12206 -1.27205L8.39586 4.72169ZM13.6041 4.72186L13.3293 10.7156L13.3318 10.7157L13.6041 4.72186ZM15.1374 5.01509L12.9668 10.6087L12.9954 10.6198L13.0241 10.6306L15.1374 5.01509ZM16.2563 5.74388L11.9747 9.94721L12.0129 9.98614L12.0518 10.0244L16.2563 5.74388ZM16.9847 6.86258L11.3685 8.97398L11.3804 9.00568L11.3927 9.03726L16.9847 6.86258ZM17.2785 8.39586L23.2722 8.12253L23.2722 8.12206L17.2785 8.39586ZM11 -6C1.61209 -6 -6 1.61209 -6 11H6C6 8.2395 8.2395 6 11 6V-6ZM-6 11C-6 20.3879 1.61209 28 11 28V16C8.2395 16 6 13.7605 6 11H-6ZM11 28C20.3879 28 28 20.3879 28 11H16C16 13.7605 13.7605 16 11 16V28ZM28 11C28 1.61209 20.3879 -6 11 -6V6C13.7605 6 16 8.2395 16 11H28ZM11.2845 13.3318C11.2809 13.4116 11.277 13.3857 11.2963 13.2898C11.3058 13.2424 11.3192 13.1867 11.3372 13.1258C11.3552 13.0648 11.3743 13.0101 11.3919 12.9648L22.5776 17.3101C22.997 16.2304 23.2156 15.1199 23.2721 13.8765L11.2845 13.3318ZM11.3887 12.9732C11.6701 12.2454 12.2454 11.6701 12.9732 11.3887L17.3017 22.5808C19.7263 21.6431 21.6431 19.7263 22.5808 17.3017L11.3887 12.9732ZM12.964 11.3922C13.01 11.3743 13.0651 11.3551 13.1264 11.337C13.1875 11.319 13.2432 11.3056 13.2904 11.2961C13.3858 11.2769 13.411 11.2809 13.3304 11.2846L13.8782 23.2721C15.1188 23.2154 16.2296 22.9975 17.3109 22.5773L12.964 11.3922ZM13.331 11.2845C12.7939 11.309 12.6854 11.3164 11.0002 11.3164V23.3164C12.7457 23.3164 13.0676 23.309 13.8776 23.2721L13.331 11.2845ZM11.0002 11.3164C9.31478 11.3164 9.20644 11.309 8.66912 11.2845L8.1226 23.2721C8.93275 23.309 9.25443 23.3164 11.0002 23.3164V11.3164ZM8.66973 11.2846C8.58914 11.2809 8.61441 11.2769 8.70978 11.2961C8.75699 11.3056 8.81269 11.319 8.8738 11.337C8.93502 11.3551 8.99014 11.3743 9.03618 11.3922L4.68931 22.5773C5.77057 22.9975 6.8814 23.2154 8.12199 23.2721L8.66973 11.2846ZM8.97537 11.369C9.37103 11.5178 9.72952 11.7513 10.0255 12.0528L1.46229 20.4595C2.38935 21.4038 3.5112 22.1344 4.75013 22.6005L8.97537 11.369ZM9.94719 11.9745C10.2495 12.2713 10.4825 12.6296 10.6309 13.0241L-0.600063 17.2508C-0.134391 18.4881 0.595749 19.6102 1.54057 20.5377L9.94719 11.9745ZM10.6079 12.964C10.6257 13.0097 10.6449 13.0646 10.663 13.1257C10.681 13.1868 10.6944 13.2425 10.7039 13.2899C10.7232 13.3857 10.7193 13.4116 10.7157 13.3319L-1.27195 13.8767C-1.21547 15.1195 -0.996913 16.2306 -0.577084 17.3109L10.6079 12.964ZM10.7155 13.3281C10.6909 12.7932 10.6836 12.6867 10.6836 11H-1.31641C-1.31641 12.7441 -1.30923 13.0679 -1.27177 13.8805L10.7155 13.3281ZM10.6836 11C10.6836 9.31338 10.6908 9.2062 10.7154 8.67068L-1.27201 8.12104C-1.30922 8.93265 -1.31641 9.25583 -1.31641 11H10.6836ZM10.7155 8.66817C10.7192 8.58786 10.7231 8.61349 10.7038 8.70922C10.6943 8.75659 10.6809 8.81235 10.6629 8.87343C10.6449 8.93461 10.6257 8.98954 10.6079 9.03523L-0.577726 4.68993C-0.997602 5.77077 -1.21569 6.88152 -1.27212 8.12355L10.7155 8.66817ZM10.6306 8.97594C10.4816 9.37167 10.2481 9.73021 9.94608 10.0266L1.54169 1.46118C0.596777 2.38832 -0.134237 3.51057 -0.600399 4.74922L10.6306 8.97594ZM10.0266 9.94608C9.72931 10.2491 9.37046 10.4823 8.97594 10.6307L4.74922 -0.600231C3.51177 -0.134523 2.38922 0.595858 1.46118 1.54169L10.0266 9.94608ZM9.03523 10.6081C8.98954 10.6258 8.93466 10.645 8.87355 10.663C8.81256 10.681 8.75692 10.6944 8.70969 10.7039C8.61429 10.7231 8.58899 10.7191 8.66966 10.7154L8.12206 -1.27205C6.88091 -1.21536 5.77061 -0.997371 4.68993 -0.577558L9.03523 10.6081ZM8.66919 10.7155C9.20629 10.691 9.31475 10.6836 11 10.6836V-1.31641C9.25447 -1.31641 8.93257 -1.30902 8.12253 -1.27208L8.66919 10.7155ZM11 10.6836C11.8626 10.6836 12.2987 10.6856 12.5956 10.6904C12.8582 10.6946 13.0101 10.7009 13.3293 10.7156L13.879 -1.27184C13.068 -1.30902 12.7454 -1.31641 11 -1.31641V10.6836ZM13.3318 10.7157C13.4121 10.7193 13.3867 10.7232 13.2913 10.7041C13.2441 10.6946 13.1885 10.6813 13.1277 10.6633C13.0668 10.6454 13.0122 10.6263 12.9668 10.6087L17.308 -0.578514C16.2285 -0.997432 15.1186 -1.21552 13.8765 -1.27195L13.3318 10.7157ZM13.0241 10.6306C12.6282 10.4816 12.2702 10.2482 11.9747 9.94721L20.5379 1.54055C19.6112 0.596663 18.4896 -0.134191 17.2508 -0.600399L13.0241 10.6306ZM12.0518 10.0244C11.7521 9.72999 11.5182 9.37202 11.3685 8.97398L22.601 4.75118C22.1344 3.51021 21.403 2.38887 20.4607 1.46339L12.0518 10.0244ZM11.3927 9.03726C11.3748 8.99124 11.3555 8.93606 11.3374 8.87469C11.3193 8.81343 11.3059 8.75757 11.2964 8.71017C11.2771 8.61444 11.281 8.58896 11.2847 8.66966L23.2722 8.12206C23.2155 6.88104 22.9975 5.76989 22.5768 4.6879L11.3927 9.03726ZM11.2847 8.66919C11.3092 9.20562 11.3164 9.31351 11.3164 11H23.3164C23.3164 9.2557 23.3092 8.93324 23.2722 8.12253L11.2847 8.66919ZM11.3164 11C11.3164 12.6866 11.3092 12.7938 11.2846 13.3293L23.272 13.879C23.3092 13.0673 23.3164 12.7442 23.3164 11H11.3164Z" fill="#1C3F97" mask="url(#path-4-inside-2_292:42)"/>
</svg>
