<svg width="22" height="22" viewBox="0 0 22 22" fill="none" xmlns="http://www.w3.org/2000/svg">
<mask id="path-1-inside-1_292:38" fill="white">
<path d="M11 0C4.9258 0 0 4.9258 0 11C0 17.0742 4.9258 22 11 22C17.0742 22 22 17.0742 22 11C22 4.9258 17.0742 0 11 0ZM11.2331 17.4045C11.233 17.4045 11.2333 17.4045 11.2331 17.4045H11.2305C10.1285 17.404 9.04576 17.1277 8.08417 16.6034L4.59413 17.5187L5.5282 14.108C4.95198 13.11 4.64885 11.9777 4.64935 10.8177C4.65086 7.18887 7.60429 4.23662 11.2331 4.23662C12.9942 4.23729 14.6473 4.92278 15.8902 6.16669C17.1333 7.41077 17.8174 9.06439 17.8168 10.8229C17.8152 14.4519 14.8615 17.4045 11.2331 17.4045Z"/>
</mask>
<path d="M11.2305 17.4045L11.2273 24.4045H11.2305V17.4045ZM8.08417 16.6034L11.4354 10.4577L8.99603 9.12754L6.30845 9.83236L8.08417 16.6034ZM4.59413 17.5187L-2.15726 15.6697L-5.36051 27.366L6.36985 24.2897L4.59413 17.5187ZM5.5282 14.108L12.2796 15.957L13.0515 13.1386L11.5903 10.608L5.5282 14.108ZM4.64935 10.8177L11.6494 10.8208V10.8206L4.64935 10.8177ZM11.2331 4.23662L11.2358 -2.76338H11.2331V4.23662ZM15.8902 6.16669L10.9385 11.1144L15.8902 6.16669ZM17.8168 10.8229L24.8168 10.8258V10.8256L17.8168 10.8229ZM11 -7C1.0598 -7 -7 1.0598 -7 11H7C7 8.79179 8.79179 7 11 7V-7ZM-7 11C-7 20.9402 1.0598 29 11 29V15C8.79179 15 7 13.2082 7 11H-7ZM11 29C20.9402 29 29 20.9402 29 11H15C15 13.2082 13.2082 15 11 15V29ZM29 11C29 1.0598 20.9402 -7 11 -7V7C13.2082 7 15 8.79179 15 11H29ZM11.2331 10.4045H11.2331H11.2331H11.2331H11.2331H11.2331H11.2331H11.2331H11.2331C11.2331 10.4045 11.2331 10.4045 11.2331 10.4045C11.2331 10.4045 11.2331 10.4045 11.2331 10.4045C11.2331 10.4045 11.2331 10.4045 11.2331 10.4045C11.2331 10.4045 11.2331 10.4045 11.2331 10.4045C11.2331 10.4045 11.2331 10.4045 11.2331 10.4045C11.2331 10.4045 11.2331 10.4045 11.2331 10.4045H11.2331H11.2331C11.2331 10.4045 11.2331 10.4045 11.2331 10.4045C11.2331 10.4045 11.2331 10.4045 11.2331 10.4045C11.2331 10.4045 11.2331 10.4045 11.2331 10.4045H11.2331C11.2331 10.4045 11.2331 10.4045 11.2331 10.4045C11.2331 10.4045 11.2331 10.4045 11.2331 10.4045H11.2331C11.2331 10.4045 11.2331 10.4045 11.2331 10.4045C11.2331 10.4045 11.2331 10.4045 11.2331 10.4045C11.2331 10.4045 11.2331 10.4045 11.2331 10.4045C11.2331 10.4045 11.2331 10.4045 11.2331 10.4045H11.2331C11.2331 10.4045 11.2331 10.4045 11.2331 10.4045C11.2331 10.4045 11.2331 10.4045 11.2331 10.4045H11.2331C11.2331 10.4045 11.2331 10.4045 11.2331 10.4045C11.2331 10.4045 11.2331 10.4045 11.2331 10.4045H11.2331C11.2331 10.4045 11.2331 10.4045 11.2331 10.4045C11.2331 10.4045 11.2331 10.4045 11.2331 10.4045C11.2331 10.4045 11.2331 10.4045 11.2331 10.4045C11.2331 10.4045 11.2331 10.4045 11.2331 10.4045C11.2331 10.4045 11.2331 10.4045 11.2331 10.4045H11.2331C11.2331 10.4045 11.2331 10.4045 11.2331 10.4045C11.2331 10.4045 11.2331 10.4045 11.2331 10.4045C11.2331 10.4045 11.2331 10.4045 11.2331 10.4045H11.2331H11.2331C11.2331 10.4045 11.2331 10.4045 11.2331 10.4045H11.2331H11.2331C11.2331 10.4045 11.2331 10.4045 11.2331 10.4045C11.2331 10.4045 11.2331 10.4045 11.2331 10.4045C11.2331 10.4045 11.2331 10.4045 11.2331 10.4045C11.2331 17.4045 11.2331 24.4045 11.2331 24.4045H11.2331C11.2331 24.4045 11.2331 24.4045 11.2331 24.4045H11.2331C11.2331 24.4045 11.2331 24.4045 11.2331 24.4045C11.2331 24.4045 11.2331 24.4045 11.2331 24.4045C11.2331 24.4045 11.2331 24.4045 11.2331 24.4045C11.2331 24.4045 11.2331 24.4045 11.2331 24.4045H11.2331C11.2331 24.4045 11.2331 24.4045 11.2331 24.4045H11.2331H11.2331H11.2331H11.2331C11.2331 24.4045 11.2331 24.4045 11.2331 24.4045C11.2331 24.4045 11.2331 24.4045 11.2331 24.4045H11.2331C11.2331 24.4045 11.2331 24.4045 11.2331 24.4045C11.2331 24.4045 11.2331 24.4045 11.2331 24.4045C11.2331 24.4045 11.2331 24.4045 11.2331 24.4045H11.2331C11.2331 24.4045 11.2331 24.4045 11.2331 24.4045H11.2331C11.2331 24.4045 11.2331 24.4045 11.2331 24.4045C11.2331 24.4045 11.2331 24.4045 11.2331 24.4045C11.2331 24.4045 11.2331 24.4045 11.2331 24.4045H11.2331H11.2331C11.2331 24.4045 11.2331 24.4045 11.2331 24.4045C11.2331 24.4045 11.2331 24.4045 11.2331 24.4045C11.2331 24.4045 11.2331 24.4045 11.2331 24.4045C11.2331 24.4045 11.2331 24.4045 11.2331 24.4045C11.2331 24.4045 11.2331 24.4045 11.2331 24.4045H11.2331H11.2331H11.2331H11.2331H11.2331H11.2331H11.2331H11.2331H11.2331H11.2331H11.2331H11.2331C11.2331 24.4045 11.2331 24.4045 11.2331 24.4045C11.2331 24.4045 11.2331 24.4045 11.2331 24.4045C11.2331 24.4045 11.2331 24.4045 11.2331 24.4045C11.2331 24.4045 11.2331 24.4045 11.2331 24.4045C11.2331 24.4045 11.2331 24.4045 11.2331 24.4045C11.2331 24.4045 11.2331 24.4045 11.2331 24.4045C11.2331 24.4045 11.2331 24.4045 11.2331 24.4045C11.2331 24.4045 11.2331 24.4045 11.2331 24.4045C11.2331 24.4045 11.2331 24.4045 11.2331 24.4045C11.2331 24.4045 11.2331 24.4045 11.2331 24.4045C11.2331 24.4045 11.2331 24.4045 11.2331 24.4045C11.2331 24.4045 11.2331 24.4045 11.2331 24.4045H11.2331H11.2331H11.2331H11.2331H11.2331H11.2331H11.2332H11.2332H11.2332H11.2332H11.2332H11.2332H11.2332H11.2332H11.2332C11.2332 24.4045 11.2332 24.4045 11.2332 24.4045C11.2332 24.4045 11.2332 24.4045 11.2332 24.4045C11.2332 24.4045 11.2332 24.4045 11.2332 24.4045C11.2332 24.4045 11.2332 24.4045 11.2332 24.4045C11.2332 24.4045 11.2332 24.4045 11.2332 24.4045H11.2332C11.2332 24.4045 11.2332 24.4045 11.2332 24.4045C11.2332 24.4045 11.2332 24.4045 11.2332 24.4045C11.2332 24.4045 11.2332 24.4045 11.2332 24.4045H11.2332C11.2332 24.4045 11.2332 24.4045 11.2332 24.4045C11.2332 24.4045 11.2332 24.4045 11.2332 24.4045C11.2332 24.4045 11.2332 24.4045 11.2332 24.4045C11.2332 24.4045 11.2332 24.4045 11.2332 24.4045C11.2332 24.4045 11.2332 24.4045 11.2332 24.4045H11.2332C11.2332 24.4045 11.2332 24.4045 11.2332 24.4045C11.2332 24.4045 11.2332 24.4045 11.2332 24.4045H11.2332H11.2332H11.2332H11.2332C11.2332 24.4045 11.2332 24.4045 11.2332 24.4045C11.2332 24.4045 11.2332 24.4045 11.2332 24.4045C11.2332 24.4045 11.2332 24.4045 11.2332 24.4045C11.2332 24.4045 11.2332 24.4045 11.2332 24.4045C11.2332 24.4045 11.2332 24.4045 11.2332 24.4045C11.2332 24.4045 11.2332 24.4045 11.2332 24.4045C11.2332 24.4045 11.2332 24.4045 11.2332 24.4045C11.2332 24.4045 11.2332 24.4045 11.2332 24.4045C11.2332 24.4045 11.2332 24.4045 11.2332 24.4045C11.2332 24.4045 11.2332 17.4045 11.2332 10.4045C11.2332 10.4045 11.2332 10.4045 11.2332 10.4045C11.2332 10.4045 11.2332 10.4045 11.2332 10.4045C11.2332 10.4045 11.2332 10.4045 11.2332 10.4045H11.2332C11.2332 10.4045 11.2332 10.4045 11.2332 10.4045C11.2332 10.4045 11.2332 10.4045 11.2332 10.4045H11.2332H11.2332C11.2332 10.4045 11.2332 10.4045 11.2332 10.4045C11.2332 10.4045 11.2332 10.4045 11.2332 10.4045C11.2332 10.4045 11.2332 10.4045 11.2332 10.4045H11.2332C11.2332 10.4045 11.2332 10.4045 11.2332 10.4045C11.2332 10.4045 11.2332 10.4045 11.2332 10.4045C11.2332 10.4045 11.2332 10.4045 11.2332 10.4045C11.2332 10.4045 11.2332 10.4045 11.2332 10.4045C11.2332 10.4045 11.2332 10.4045 11.2332 10.4045H11.2332C11.2332 10.4045 11.2332 10.4045 11.2332 10.4045C11.2332 10.4045 11.2332 10.4045 11.2332 10.4045H11.2332C11.2332 10.4045 11.2332 10.4045 11.2332 10.4045C11.2332 10.4045 11.2332 10.4045 11.2332 10.4045H11.2332C11.2332 10.4045 11.2332 10.4045 11.2332 10.4045C11.2332 10.4045 11.2332 10.4045 11.2332 10.4045C11.2332 10.4045 11.2332 10.4045 11.2332 10.4045C11.2332 10.4045 11.2332 10.4045 11.2332 10.4045H11.2332C11.2332 10.4045 11.2332 10.4045 11.2332 10.4045C11.2332 10.4045 11.2332 10.4045 11.2332 10.4045H11.2332C11.2332 10.4045 11.2332 10.4045 11.2332 10.4045C11.2332 10.4045 11.2332 10.4045 11.2332 10.4045C11.2332 10.4045 11.2332 10.4045 11.2332 10.4045H11.2332H11.2332C11.2332 10.4045 11.2332 10.4045 11.2332 10.4045C11.2332 10.4045 11.2332 10.4045 11.2332 10.4045C11.2331 10.4045 11.2331 10.4045 11.2331 10.4045C11.2331 10.4045 11.2331 10.4045 11.2331 10.4045C11.2331 10.4045 11.2331 10.4045 11.2331 10.4045C11.2331 10.4045 11.2331 10.4045 11.2331 10.4045H11.2331H11.2331H11.2331H11.2331H11.2331H11.2331H11.2331H11.2331V24.4045H11.2331H11.2331H11.2331H11.2331H11.2331H11.2331H11.2331H11.2331C11.2331 24.4045 11.2331 24.4045 11.2331 24.4045C11.2331 24.4045 11.2331 24.4045 11.2331 24.4045C11.2331 24.4045 11.2331 24.4045 11.2331 24.4045C11.2331 24.4045 11.2331 24.4045 11.2332 24.4045C11.2332 24.4045 11.2332 24.4045 11.2332 24.4045C11.2332 24.4045 11.2332 24.4045 11.2332 24.4045H11.2332H11.2332C11.2332 24.4045 11.2332 24.4045 11.2332 24.4045C11.2332 24.4045 11.2332 24.4045 11.2332 24.4045C11.2332 24.4045 11.2332 24.4045 11.2332 24.4045H11.2332C11.2332 24.4045 11.2332 24.4045 11.2332 24.4045C11.2332 24.4045 11.2332 24.4045 11.2332 24.4045H11.2332C11.2332 24.4045 11.2332 24.4045 11.2332 24.4045C11.2332 24.4045 11.2332 24.4045 11.2332 24.4045C11.2332 24.4045 11.2332 24.4045 11.2332 24.4045C11.2332 24.4045 11.2332 24.4045 11.2332 24.4045H11.2332C11.2332 24.4045 11.2332 24.4045 11.2332 24.4045C11.2332 24.4045 11.2332 24.4045 11.2332 24.4045H11.2332C11.2332 24.4045 11.2332 24.4045 11.2332 24.4045C11.2332 24.4045 11.2332 24.4045 11.2332 24.4045H11.2332C11.2332 24.4045 11.2332 24.4045 11.2332 24.4045C11.2332 24.4045 11.2332 24.4045 11.2332 24.4045C11.2332 24.4045 11.2332 24.4045 11.2332 24.4045C11.2332 24.4045 11.2332 24.4045 11.2332 24.4045C11.2332 24.4045 11.2332 24.4045 11.2332 24.4045H11.2332C11.2332 24.4045 11.2332 24.4045 11.2332 24.4045C11.2332 24.4045 11.2332 24.4045 11.2332 24.4045C11.2332 24.4045 11.2332 24.4045 11.2332 24.4045H11.2332H11.2332C11.2332 24.4045 11.2332 24.4045 11.2332 24.4045C11.2332 24.4045 11.2332 24.4045 11.2332 24.4045H11.2332C11.2332 24.4045 11.2332 24.4045 11.2332 24.4045C11.2332 24.4045 11.2332 24.4045 11.2332 24.4045C11.2332 24.4045 11.2332 24.4045 11.2332 24.4045C11.2332 17.4045 11.2332 10.4045 11.2332 10.4045C11.2332 10.4045 11.2332 10.4045 11.2332 10.4045C11.2332 10.4045 11.2332 10.4045 11.2332 10.4045C11.2332 10.4045 11.2332 10.4045 11.2332 10.4045C11.2332 10.4045 11.2332 10.4045 11.2332 10.4045C11.2332 10.4045 11.2332 10.4045 11.2332 10.4045C11.2332 10.4045 11.2332 10.4045 11.2332 10.4045C11.2332 10.4045 11.2332 10.4045 11.2332 10.4045C11.2332 10.4045 11.2332 10.4045 11.2332 10.4045C11.2332 10.4045 11.2332 10.4045 11.2332 10.4045H11.2332H11.2332H11.2332H11.2332C11.2332 10.4045 11.2332 10.4045 11.2332 10.4045C11.2332 10.4045 11.2332 10.4045 11.2332 10.4045H11.2332C11.2332 10.4045 11.2332 10.4045 11.2332 10.4045C11.2332 10.4045 11.2332 10.4045 11.2332 10.4045C11.2332 10.4045 11.2332 10.4045 11.2332 10.4045C11.2332 10.4045 11.2332 10.4045 11.2332 10.4045C11.2332 10.4045 11.2332 10.4045 11.2332 10.4045H11.2332C11.2332 10.4045 11.2332 10.4045 11.2332 10.4045C11.2332 10.4045 11.2332 10.4045 11.2332 10.4045C11.2332 10.4045 11.2332 10.4045 11.2332 10.4045H11.2332C11.2332 10.4045 11.2332 10.4045 11.2332 10.4045C11.2332 10.4045 11.2332 10.4045 11.2332 10.4045C11.2332 10.4045 11.2332 10.4045 11.2332 10.4045C11.2332 10.4045 11.2332 10.4045 11.2332 10.4045C11.2332 10.4045 11.2332 10.4045 11.2332 10.4045H11.2332H11.2332H11.2332H11.2332H11.2332H11.2332H11.2332H11.2332H11.2331H11.2331H11.2331H11.2331H11.2331H11.2331H11.2331C11.2331 10.4045 11.2331 10.4045 11.2331 10.4045C11.2331 10.4045 11.2331 10.4045 11.2331 10.4045C11.2331 10.4045 11.2331 10.4045 11.2331 10.4045C11.2331 10.4045 11.2331 10.4045 11.2331 10.4045C11.2331 10.4045 11.2331 10.4045 11.2331 10.4045C11.2331 10.4045 11.2331 10.4045 11.2331 10.4045C11.2331 10.4045 11.2331 10.4045 11.2331 10.4045C11.2331 10.4045 11.2331 10.4045 11.2331 10.4045C11.2331 10.4045 11.2331 10.4045 11.2331 10.4045C11.2331 10.4045 11.2331 10.4045 11.2331 10.4045C11.2331 10.4045 11.2331 10.4045 11.2331 10.4045C11.2331 10.4045 11.2331 10.4045 11.2331 10.4045H11.2331H11.2331H11.2331H11.2331H11.2331H11.2331H11.2331H11.2331H11.2331H11.2331H11.2331H11.2331C11.2331 10.4045 11.2331 10.4045 11.2331 10.4045C11.2331 10.4045 11.2331 10.4045 11.2331 10.4045C11.2331 10.4045 11.2331 10.4045 11.2331 10.4045C11.2331 10.4045 11.2331 10.4045 11.2331 10.4045C11.2331 10.4045 11.2331 10.4045 11.2331 10.4045H11.2331H11.2331C11.2331 10.4045 11.2331 10.4045 11.2331 10.4045C11.2331 10.4045 11.2331 10.4045 11.2331 10.4045C11.2331 10.4045 11.2331 10.4045 11.2331 10.4045H11.2331C11.2331 10.4045 11.2331 10.4045 11.2331 10.4045H11.2331C11.2331 10.4045 11.2331 10.4045 11.2331 10.4045C11.2331 10.4045 11.2331 10.4045 11.2331 10.4045C11.2331 10.4045 11.2331 10.4045 11.2331 10.4045H11.2331C11.2331 10.4045 11.2331 10.4045 11.2331 10.4045C11.2331 10.4045 11.2331 10.4045 11.2331 10.4045H11.2331H11.2331H11.2331H11.2331C11.2331 10.4045 11.2331 10.4045 11.2331 10.4045H11.2331C11.2331 10.4045 11.2331 10.4045 11.2331 10.4045C11.2331 10.4045 11.2331 10.4045 11.2331 10.4045C11.2331 10.4045 11.2331 10.4045 11.2331 10.4045C11.2331 10.4045 11.2331 10.4045 11.2331 10.4045H11.2331C11.2331 10.4045 11.2331 10.4045 11.2331 10.4045H11.2331C11.2331 10.4045 11.2331 17.4045 11.2331 24.4045C11.2331 24.4045 11.2331 24.4045 11.2331 24.4045C11.2331 24.4045 11.2331 24.4045 11.2331 24.4045C11.2331 24.4045 11.2331 24.4045 11.2331 24.4045H11.2331H11.2331C11.2331 24.4045 11.2331 24.4045 11.2331 24.4045H11.2331H11.2331C11.2331 24.4045 11.2331 24.4045 11.2331 24.4045C11.2331 24.4045 11.2331 24.4045 11.2331 24.4045C11.2331 24.4045 11.2331 24.4045 11.2331 24.4045H11.2331C11.2331 24.4045 11.2331 24.4045 11.2331 24.4045C11.2331 24.4045 11.2331 24.4045 11.2331 24.4045C11.2331 24.4045 11.2331 24.4045 11.2331 24.4045C11.2331 24.4045 11.2331 24.4045 11.2331 24.4045C11.2331 24.4045 11.2331 24.4045 11.2331 24.4045H11.2331C11.2331 24.4045 11.2331 24.4045 11.2331 24.4045C11.2331 24.4045 11.2331 24.4045 11.2331 24.4045H11.2331C11.2331 24.4045 11.2331 24.4045 11.2331 24.4045C11.2331 24.4045 11.2331 24.4045 11.2331 24.4045H11.2331C11.2331 24.4045 11.2331 24.4045 11.2331 24.4045C11.2331 24.4045 11.2331 24.4045 11.2331 24.4045C11.2331 24.4045 11.2331 24.4045 11.2331 24.4045C11.2331 24.4045 11.2331 24.4045 11.2331 24.4045H11.2331C11.2331 24.4045 11.2331 24.4045 11.2331 24.4045C11.2331 24.4045 11.2331 24.4045 11.2331 24.4045H11.2331C11.2331 24.4045 11.2331 24.4045 11.2331 24.4045C11.2331 24.4045 11.2331 24.4045 11.2331 24.4045C11.2331 24.4045 11.2331 24.4045 11.2331 24.4045H11.2331H11.2331C11.2331 24.4045 11.2331 24.4045 11.2331 24.4045C11.2331 24.4045 11.2331 24.4045 11.2331 24.4045C11.2331 24.4045 11.2331 24.4045 11.2331 24.4045C11.2331 24.4045 11.2331 24.4045 11.2331 24.4045C11.2331 24.4045 11.2331 24.4045 11.2331 24.4045C11.2331 24.4045 11.2331 24.4045 11.2331 24.4045H11.2331H11.2331H11.2331H11.2331H11.2331H11.2331H11.2331H11.2331V10.4045ZM11.2331 10.4045H11.2305V24.4045H11.2331V10.4045ZM11.2337 10.4045C11.2979 10.4046 11.3666 10.4202 11.4354 10.4577L4.73295 22.7491C6.72488 23.8353 8.95919 24.4035 11.2273 24.4045L11.2337 10.4045ZM6.30845 9.83236L2.81842 10.7476L6.36985 24.2897L9.85988 23.3744L6.30845 9.83236ZM11.3455 19.3677L12.2796 15.957L-1.22319 12.259L-2.15726 15.6697L11.3455 19.3677ZM11.5903 10.608C11.6311 10.6786 11.6494 10.7551 11.6494 10.8208L-2.35065 10.8147C-2.35168 13.2003 -1.72716 15.5414 -0.533946 17.6081L11.5903 10.608ZM11.6494 10.8206C11.6493 10.9432 11.5918 11.055 11.5297 11.1171C11.4676 11.1792 11.3557 11.2366 11.2331 11.2366V-2.76338C3.73936 -2.76338 -2.34753 3.32118 -2.35065 10.8148L11.6494 10.8206ZM11.2305 11.2366C11.1984 11.2366 11.1416 11.2293 11.0756 11.2019C11.0097 11.1746 10.963 11.139 10.9385 11.1144L20.842 1.21894C18.2857 -1.33938 14.8519 -2.762 11.2358 -2.76338L11.2305 11.2366ZM10.9385 11.1144C10.9142 11.0901 10.8789 11.0439 10.8517 10.9781C10.8245 10.9123 10.8167 10.8547 10.8168 10.8202L24.8168 10.8256C24.8181 7.21065 23.3973 3.7763 20.842 1.21894L10.9385 11.1144ZM10.8168 10.82C10.8168 10.6974 10.8743 10.5858 10.9361 10.524C10.9979 10.4622 11.1098 10.4045 11.2331 10.4045V24.4045C18.7269 24.4045 24.8136 18.3192 24.8168 10.8258L10.8168 10.82Z" fill="#1C3F97" mask="url(#path-1-inside-1_292:38)"/>
<path d="M11.8632 12.4296L11.9413 12.2737L12.1895 12.3622L12.2193 12.3883L12.1897 12.3623L12.2298 12.3766C12.2262 12.3809 12.2227 12.3848 12.2195 12.3885C12.1235 12.4981 12.0275 12.5118 11.8632 12.4296ZM11.8632 12.4296L11.9413 12.2736L11.9199 12.266L11.8517 12.424C11.8557 12.4259 11.8596 12.4278 11.8632 12.4296ZM14.3036 8.371L14.3027 8.37067C14.2465 8.35015 14.061 8.28246 13.8293 8.22645C13.8189 8.22393 13.8084 8.22144 13.7978 8.21898C13.6946 8.19496 13.5626 8.16847 13.407 8.14877C13.3628 8.02552 13.3172 7.91751 13.2754 7.82689C13.2686 7.81108 13.2589 7.78809 13.2459 7.75691C13.2113 7.67433 13.1653 7.56312 13.1134 7.4371C13.0813 7.35924 13.0466 7.27471 13.0118 7.19014C12.9398 7.01473 12.8676 6.83914 12.8191 6.72256L14.3036 8.371ZM13.0764 10.1119C13.0847 10.2289 13.0866 10.3439 13.0828 10.4565C13.0213 10.4344 12.9572 10.4102 12.8888 10.3826L13.0532 10.0544C13.0613 10.0734 13.069 10.0926 13.0764 10.1119ZM12.8351 10.4897C12.8619 10.4864 12.9525 10.4777 13.0814 10.4914C13.0733 10.6765 13.0499 10.8547 13.0145 11.0245C13.0142 11.0259 13.0139 11.0272 13.0136 11.0286C12.9946 11.1191 12.9722 11.2073 12.9468 11.2927L12.8988 10.9712L12.8981 10.9665L12.8288 10.5022L12.8351 10.4897ZM12.897 10.9702L12.9458 11.296C12.916 11.3958 12.8822 11.492 12.8452 11.584C12.8347 11.6103 12.8239 11.636 12.8131 11.6611C12.7885 11.6805 12.7645 11.7074 12.7404 11.7436C12.6588 11.8661 12.4634 12.1025 12.3292 12.2607C12.3289 12.2611 12.3286 12.2614 12.3283 12.2618C12.2886 12.3085 12.2544 12.3484 12.2301 12.3764L12.189 12.3617L11.9862 12.1841L12.057 12.0428L12.0575 12.0417L12.3403 11.4773L12.655 10.8492L12.6565 10.8461L12.8274 10.5052L12.8963 10.9656L12.897 10.9702ZM12.9586 11.6201C12.9681 11.6057 12.9778 11.5909 12.9877 11.5758L12.9952 11.6258C12.9827 11.6232 12.9705 11.6212 12.9586 11.6201ZM11.9196 12.2659L11.8514 12.4238C11.8259 12.4116 11.7932 12.3974 11.754 12.3804C11.6164 12.3207 11.3993 12.2265 11.1356 12.0617C11.1426 12.0378 11.15 12.0153 11.1576 11.9939L11.9196 12.2659ZM10.4493 10.8428C10.3108 10.9287 10.1685 11.0003 10.0248 11.059C9.82017 10.799 9.68175 10.5713 9.62514 10.4742C9.5777 10.3928 9.57694 10.332 9.59711 10.2803C9.61351 10.2384 9.64375 10.2025 9.67399 10.1666C9.67409 10.1664 9.67418 10.1663 9.67428 10.1662L9.70899 10.1965L9.86608 10.3337L9.86615 10.3337L10.4493 10.8428ZM9.71342 10.1932L9.67782 10.162C9.68439 10.1542 9.69093 10.1464 9.69731 10.1385C9.77157 10.0464 9.84732 9.95048 9.91404 9.86225C9.98073 9.77406 10.0384 9.69354 10.0765 9.63217C10.0957 9.6179 10.1152 9.60362 10.1353 9.58938C10.1353 9.58937 10.1353 9.58937 10.1353 9.58936C10.15 9.57886 10.165 9.56838 10.1802 9.55793L10.309 9.67596L10.3098 9.67664L10.3516 9.71501L10.5754 9.92008L10.5757 9.92033L11.038 10.344C11.0174 10.3716 10.9997 10.394 10.9878 10.4088C10.9542 10.4434 10.9202 10.4768 10.8856 10.509C10.7677 10.619 10.6442 10.7155 10.517 10.7995C10.5169 10.7996 10.5168 10.7996 10.5166 10.7997C10.4954 10.8137 10.4741 10.8274 10.4527 10.8407L9.87078 10.331L9.87071 10.331L9.71342 10.1932ZM10.3094 9.67615L10.1803 9.55787C10.2813 9.48851 10.3926 9.42032 10.5144 9.35648C10.7082 9.25489 10.9285 9.16431 11.1758 9.09755C11.2357 9.08136 11.2973 9.06658 11.3604 9.05337C11.3745 9.12675 11.3878 9.2291 11.3878 9.35648C11.3878 9.38659 11.3867 9.41725 11.3845 9.44835C11.3844 9.44861 11.3844 9.44887 11.3844 9.44913C11.3692 9.66275 11.3023 9.89669 11.1867 10.1134C11.1864 10.1139 11.1862 10.1143 11.186 10.1147C11.1794 10.127 11.1727 10.1393 11.1658 10.1515C11.1252 10.2232 11.0765 10.2925 11.0381 10.3439L10.5758 9.92026L10.5755 9.92001L10.3517 9.71494L10.3101 9.67683L10.3094 9.67615ZM11.4205 9.04139C11.4934 9.02753 11.5684 9.01579 11.6454 9.00645C11.7531 8.99338 11.8574 8.98605 11.9577 8.98344C12.0011 9.00051 12.0438 9.01917 12.0858 9.0394C12.0861 9.03956 12.0865 9.03971 12.0868 9.03987C12.2541 9.12055 12.4105 9.22616 12.5532 9.35555L12.106 9.85712C12.048 9.80188 11.9889 9.74238 11.9291 9.67869C11.8028 9.54404 11.6974 9.41608 11.6177 9.31318C11.6176 9.31299 11.6174 9.31279 11.6173 9.3126C11.6074 9.29986 11.5979 9.2875 11.5889 9.27557C11.5486 9.22245 11.5167 9.17832 11.4931 9.14486L11.457 9.09345L11.4305 9.05553L11.4297 9.05449C11.4279 9.05188 11.4247 9.04739 11.4205 9.04139ZM11.3267 11.6089L11.9632 12.1647L11.9197 12.2655L11.1578 11.9935C11.2089 11.8502 11.2668 11.7221 11.3267 11.6089ZM11.9414 12.2733L11.9201 12.2657L11.9636 12.165L11.9859 12.1845L11.9414 12.2733ZM11.9861 12.184L11.9638 12.1644L12.0268 12.0185L12.0273 12.0173L12.2782 11.436L12.5535 10.7985L12.5548 10.7954L12.6746 10.5178C12.7212 10.5082 12.7715 10.4991 12.8252 10.4911L12.8271 10.5037L12.6559 10.8458L12.6543 10.8489L12.34 11.4771L12.0574 12.0416L12.0568 12.0427L11.9861 12.184ZM12.2736 10.6383C12.3119 10.6222 12.4513 10.564 12.6736 10.518L12.5541 10.795L12.5527 10.7981L12.2777 11.4356L12.0269 12.017L12.0264 12.0182L11.9635 12.1641L11.3276 11.6071C11.347 11.5704 11.3667 11.5352 11.3863 11.5016C11.3865 11.5013 11.3866 11.5011 11.3868 11.5008C11.5062 11.2969 11.6266 11.1502 11.7106 11.0581C11.7319 11.0349 11.7508 11.0151 11.7668 10.9988C11.9081 10.8545 12.0238 10.7753 12.0774 10.7409C12.131 10.7065 12.1864 10.6764 12.2518 10.6477C12.253 10.6472 12.2542 10.6466 12.2553 10.6461C12.2613 10.6435 12.2674 10.6409 12.2736 10.6383ZM12.7559 10.3272C12.5838 10.2527 12.3551 10.0942 12.1063 9.85739L12.5536 9.35589C12.5788 9.37878 12.6036 9.40241 12.6279 9.42678L12.7559 10.3272ZM12.8341 10.4898L12.8286 10.5007L12.8271 10.4908C12.8278 10.4907 12.8301 10.4903 12.8341 10.4898ZM11.9415 12.2733L11.986 12.1845L12.1888 12.3616L11.9415 12.2733ZM11.312 8.88182C11.3111 8.8801 11.3107 8.87925 11.3108 8.87926C11.3108 8.87927 11.3112 8.88012 11.312 8.88182ZM12.9888 11.5741C13.0235 11.5207 13.0598 11.4628 13.0962 11.4016L12.9965 11.6261L12.9888 11.5741Z" stroke="#1C3F97" stroke-width="7"/>
</svg>
